<svg version="1.1" xmlns="http://www.w3.org/2000/svg" xmlns:xlink="http://www.w3.org/1999/xlink" width="1048.5341796875" height="932"><defs/><g><g transform="translate(10,-6) scale(1,1)"><rect fill="#C0C0C0" stroke="none" x="207" y="207" width="168" height="115" opacity="0.2"/></g><g transform="translate(10,-6) scale(1,1)"><rect fill="#ffffff" stroke="none" x="200" y="200" width="168" height="115"/></g><g transform="translate(10,-6) scale(1,1)"><path fill="none" stroke="#000000" d="M 200 200 L 368 200 L 368 315 L 200 315 L 200 200 Z Z" stroke-miterlimit="10"/></g><g transform="translate(10,-6) scale(1,1)"><path fill="none" stroke="#000000" d="M 200 238 L 368 238" stroke-miterlimit="10"/></g><g transform="translate(10,-6) scale(1,1)"><path fill="none" stroke="#000000" d="M 200 248 L 368 248" stroke-miterlimit="10"/></g><g transform="translate(10,-6) scale(1,1)"><g><path fill="none" stroke="none"/><text fill="#000000" stroke="none" font-family="Arial" font-size="13px" font-style="normal" font-weight="normal" text-decoration="none" x="248.945068359375" y="217.5">«Boundary»</text></g></g><g transform="translate(10,-6) scale(1,1)"><g><path fill="none" stroke="none"/><text fill="#000000" stroke="none" font-family="Arial" font-size="13px" font-style="normal" font-weight="bold" text-decoration="none" x="214.267822265625" y="232.5">SalesAssociateInterface</text></g></g><g transform="translate(10,-6) scale(1,1)"><g><path fill="none" stroke="none"/><text fill="#000000" stroke="none" font-family="Arial" font-size="13px" font-style="normal" font-weight="normal" text-decoration="none" x="205" y="265.5">+index()</text></g></g><g transform="translate(10,-6) scale(1,1)"><g><path fill="none" stroke="none"/><text fill="#000000" stroke="none" font-family="Arial" font-size="13px" font-style="normal" font-weight="normal" text-decoration="none" x="205" y="280.5">+submitLogin()</text></g></g><g transform="translate(10,-6) scale(1,1)"><g><path fill="none" stroke="none"/><text fill="#000000" stroke="none" font-family="Arial" font-size="13px" font-style="normal" font-weight="normal" text-decoration="none" x="205" y="295.5">+createQuote()</text></g></g><g transform="translate(10,-6) scale(1,1)"><g><path fill="none" stroke="none"/><text fill="#000000" stroke="none" font-family="Arial" font-size="13px" font-style="normal" font-weight="normal" text-decoration="none" x="205" y="310.5">+finalizeQuote()</text></g></g><g transform="translate(10,-6) scale(1,1)"><rect fill="#C0C0C0" stroke="none" x="583" y="191" width="178" height="85" opacity="0.2"/></g><g transform="translate(10,-6) scale(1,1)"><rect fill="#ffffff" stroke="none" x="576" y="184" width="178" height="85"/></g><g transform="translate(10,-6) scale(1,1)"><path fill="none" stroke="#000000" d="M 576 184 L 754 184 L 754 269 L 576 269 L 576 184 Z Z" stroke-miterlimit="10"/></g><g transform="translate(10,-6) scale(1,1)"><path fill="none" stroke="#000000" d="M 576 222 L 754 222" stroke-miterlimit="10"/></g><g transform="translate(10,-6) scale(1,1)"><path fill="none" stroke="#000000" d="M 576 232 L 754 232" stroke-miterlimit="10"/></g><g transform="translate(10,-6) scale(1,1)"><g><path fill="none" stroke="none"/><text fill="#000000" stroke="none" font-family="Arial" font-size="13px" font-style="normal" font-weight="normal" text-decoration="none" x="629.945068359375" y="201.5">«Boundary»</text></g></g><g transform="translate(10,-6) scale(1,1)"><g><path fill="none" stroke="none"/><text fill="#000000" stroke="none" font-family="Arial" font-size="13px" font-style="normal" font-weight="bold" text-decoration="none" x="590.9228515625" y="216.5">LegacyDatabaseInterface</text></g></g><g transform="translate(10,-6) scale(1,1)"><g><path fill="none" stroke="none"/><text fill="#000000" stroke="none" font-family="Arial" font-size="13px" font-style="normal" font-weight="normal" text-decoration="none" x="581" y="249.5">+getCustomerInfo()</text></g></g><g transform="translate(10,-6) scale(1,1)"><g><path fill="none" stroke="none"/><text fill="#000000" stroke="none" font-family="Arial" font-size="13px" font-style="normal" font-weight="normal" text-decoration="none" x="581" y="264.5">+getCustomerNames()</text></g></g><g transform="translate(10,-6) scale(1,1)"><rect fill="#C0C0C0" stroke="none" x="399" y="191" width="160" height="115" opacity="0.2"/></g><g transform="translate(10,-6) scale(1,1)"><rect fill="#ffffff" stroke="none" x="392" y="184" width="160" height="115"/></g><g transform="translate(10,-6) scale(1,1)"><path fill="none" stroke="#000000" d="M 392 184 L 552 184 L 552 299 L 392 299 L 392 184 Z Z" stroke-miterlimit="10"/></g><g transform="translate(10,-6) scale(1,1)"><path fill="none" stroke="#000000" d="M 392 222 L 552 222" stroke-miterlimit="10"/></g><g transform="translate(10,-6) scale(1,1)"><path fill="none" stroke="#000000" d="M 392 232 L 552 232" stroke-miterlimit="10"/></g><g transform="translate(10,-6) scale(1,1)"><g><path fill="none" stroke="none"/><text fill="#000000" stroke="none" font-family="Arial" font-size="13px" font-style="normal" font-weight="normal" text-decoration="none" x="443.81640625" y="201.5">«Control»</text></g></g><g transform="translate(10,-6) scale(1,1)"><g><path fill="none" stroke="none"/><text fill="#000000" stroke="none" font-family="Arial" font-size="13px" font-style="normal" font-weight="bold" text-decoration="none" x="406.6064453125" y="216.5">CreateQuoteController</text></g></g><g transform="translate(10,-6) scale(1,1)"><g><path fill="none" stroke="none"/><text fill="#000000" stroke="none" font-family="Arial" font-size="13px" font-style="normal" font-weight="normal" text-decoration="none" x="397" y="249.5">+getPass()</text></g></g><g transform="translate(10,-6) scale(1,1)"><g><path fill="none" stroke="none"/><text fill="#000000" stroke="none" font-family="Arial" font-size="13px" font-style="normal" font-weight="normal" text-decoration="none" x="397" y="264.5">+getCustomerInfo()</text></g></g><g transform="translate(10,-6) scale(1,1)"><g><path fill="none" stroke="none"/><text fill="#000000" stroke="none" font-family="Arial" font-size="13px" font-style="normal" font-weight="normal" text-decoration="none" x="397" y="279.5">+finalizeQuote()</text></g></g><g transform="translate(10,-6) scale(1,1)"><g><path fill="none" stroke="none"/><text fill="#000000" stroke="none" font-family="Arial" font-size="13px" font-style="normal" font-weight="normal" text-decoration="none" x="397" y="294.5">+getCustomerNames()</text></g></g><g transform="translate(10,-6) scale(1,1)"><rect fill="#C0C0C0" stroke="none" x="391" y="655" width="170" height="280" opacity="0.2"/></g><g transform="translate(10,-6) scale(1,1)"><rect fill="#ffffff" stroke="none" x="384" y="648" width="170" height="280"/></g><g transform="translate(10,-6) scale(1,1)"><path fill="none" stroke="#000000" d="M 384 648 L 554 648 L 554 928 L 384 928 L 384 648 Z Z" stroke-miterlimit="10"/></g><g transform="translate(10,-6) scale(1,1)"><path fill="none" stroke="#000000" d="M 384 686 L 554 686" stroke-miterlimit="10"/></g><g transform="translate(10,-6) scale(1,1)"><path fill="none" stroke="#000000" d="M 384 919 L 554 919" stroke-miterlimit="10"/></g><g transform="translate(10,-6) scale(1,1)"><g><path fill="none" stroke="none"/><text fill="#000000" stroke="none" font-family="Arial" font-size="13px" font-style="normal" font-weight="normal" text-decoration="none" x="445.513671875" y="665.5">«Entity»</text></g></g><g transform="translate(10,-6) scale(1,1)"><g><path fill="none" stroke="none"/><text fill="#000000" stroke="none" font-family="Arial" font-size="13px" font-style="normal" font-weight="bold" text-decoration="none" x="451.293212890625" y="680.5">Quote</text></g></g><g transform="translate(10,-6) scale(1,1)"><g><path fill="none" stroke="none"/><text fill="#000000" stroke="none" font-family="Arial" font-size="13px" font-style="normal" font-weight="normal" text-decoration="none" x="389" y="703.5">+quoteId {unique}</text></g></g><g transform="translate(10,-6) scale(1,1)"><g><path fill="none" stroke="none"/><text fill="#000000" stroke="none" font-family="Arial" font-size="13px" font-style="normal" font-weight="normal" text-decoration="none" x="389" y="718.5">+customerName</text></g></g><g transform="translate(10,-6) scale(1,1)"><g><path fill="none" stroke="none"/><text fill="#000000" stroke="none" font-family="Arial" font-size="13px" font-style="normal" font-weight="normal" text-decoration="none" x="389" y="733.5">+custId</text></g></g><g transform="translate(10,-6) scale(1,1)"><g><path fill="none" stroke="none"/><text fill="#000000" stroke="none" font-family="Arial" font-size="13px" font-style="normal" font-weight="normal" text-decoration="none" x="389" y="748.5">+customerAddress</text></g></g><g transform="translate(10,-6) scale(1,1)"><g><path fill="none" stroke="none"/><text fill="#000000" stroke="none" font-family="Arial" font-size="13px" font-style="normal" font-weight="normal" text-decoration="none" x="389" y="763.5">+customerCity</text></g></g><g transform="translate(10,-6) scale(1,1)"><g><path fill="none" stroke="none"/><text fill="#000000" stroke="none" font-family="Arial" font-size="13px" font-style="normal" font-weight="normal" text-decoration="none" x="389" y="778.5">+customerEmail</text></g></g><g transform="translate(10,-6) scale(1,1)"><g><path fill="none" stroke="none"/><text fill="#000000" stroke="none" font-family="Arial" font-size="13px" font-style="normal" font-weight="normal" text-decoration="none" x="389" y="793.5">+finalDiscountPercentage</text></g></g><g transform="translate(10,-6) scale(1,1)"><g><path fill="none" stroke="none"/><text fill="#000000" stroke="none" font-family="Arial" font-size="13px" font-style="normal" font-weight="normal" text-decoration="none" x="389" y="808.5">+finalDiscountAmount</text></g></g><g transform="translate(10,-6) scale(1,1)"><g><path fill="none" stroke="none"/><text fill="#000000" stroke="none" font-family="Arial" font-size="13px" font-style="normal" font-weight="normal" text-decoration="none" x="389" y="823.5">+finalPrice</text></g></g><g transform="translate(10,-6) scale(1,1)"><g><path fill="none" stroke="none"/><text fill="#000000" stroke="none" font-family="Arial" font-size="13px" font-style="normal" font-weight="normal" text-decoration="none" x="389" y="838.5">+isFinalized</text></g></g><g transform="translate(10,-6) scale(1,1)"><g><path fill="none" stroke="none"/><text fill="#000000" stroke="none" font-family="Arial" font-size="13px" font-style="normal" font-weight="normal" text-decoration="none" x="389" y="853.5">+isSanctioned</text></g></g><g transform="translate(10,-6) scale(1,1)"><g><path fill="none" stroke="none"/><text fill="#000000" stroke="none" font-family="Arial" font-size="13px" font-style="normal" font-weight="normal" text-decoration="none" x="389" y="868.5">+isPO</text></g></g><g transform="translate(10,-6) scale(1,1)"><g><path fill="none" stroke="none"/><text fill="#000000" stroke="none" font-family="Arial" font-size="13px" font-style="normal" font-weight="normal" text-decoration="none" x="389" y="883.5">+processingDate</text></g></g><g transform="translate(10,-6) scale(1,1)"><g><path fill="none" stroke="none"/><text fill="#000000" stroke="none" font-family="Arial" font-size="13px" font-style="normal" font-weight="normal" text-decoration="none" x="389" y="898.5">+accumulatedCommissions</text></g></g><g transform="translate(10,-6) scale(1,1)"><g><path fill="none" stroke="none"/><text fill="#000000" stroke="none" font-family="Arial" font-size="13px" font-style="normal" font-weight="normal" text-decoration="none" x="389" y="913.5">+salesAssociate</text></g></g><g transform="translate(10,-6) scale(1,1)"><rect fill="#C0C0C0" stroke="none" x="407" y="335" width="149.53076171875" height="235" opacity="0.2"/></g><g transform="translate(10,-6) scale(1,1)"><rect fill="#ffffff" stroke="none" x="400" y="328" width="149.53076171875" height="235"/></g><g transform="translate(10,-6) scale(1,1)"><path fill="none" stroke="#000000" d="M 400 328 L 549.53076171875 328 L 549.53076171875 563 L 400 563 L 400 328 Z Z" stroke-miterlimit="10"/></g><g transform="translate(10,-6) scale(1,1)"><path fill="none" stroke="#000000" d="M 400 366 L 549.53076171875 366" stroke-miterlimit="10"/></g><g transform="translate(10,-6) scale(1,1)"><path fill="none" stroke="#000000" d="M 400 376 L 549.53076171875 376" stroke-miterlimit="10"/></g><g transform="translate(10,-6) scale(1,1)"><g><path fill="none" stroke="none"/><text fill="#000000" stroke="none" font-family="Arial" font-size="13px" font-style="normal" font-weight="normal" text-decoration="none" x="433.575439453125" y="345.5">«Persistence»</text></g></g><g transform="translate(10,-6) scale(1,1)"><g><path fill="none" stroke="none"/><text fill="#000000" stroke="none" font-family="Arial" font-size="13px" font-style="normal" font-weight="bold" text-decoration="none" x="441.522705078125" y="360.5">QuoteStore</text></g></g><g transform="translate(10,-6) scale(1,1)"><g><path fill="none" stroke="none"/><text fill="#000000" stroke="none" font-family="Arial" font-size="13px" font-style="normal" font-weight="normal" text-decoration="none" x="405" y="393.5">+finalizeQuote()</text></g></g><g transform="translate(10,-6) scale(1,1)"><g><path fill="none" stroke="none"/><text fill="#000000" stroke="none" font-family="Arial" font-size="13px" font-style="normal" font-weight="normal" text-decoration="none" x="405" y="408.5">+getQuote()</text></g></g><g transform="translate(10,-6) scale(1,1)"><g><path fill="none" stroke="none"/><text fill="#000000" stroke="none" font-family="Arial" font-size="13px" font-style="normal" font-weight="normal" text-decoration="none" x="405" y="423.5">+updateQuote()</text></g></g><g transform="translate(10,-6) scale(1,1)"><g><path fill="none" stroke="none"/><text fill="#000000" stroke="none" font-family="Arial" font-size="13px" font-style="normal" font-weight="normal" text-decoration="none" x="405" y="438.5">+findQuote()</text></g></g><g transform="translate(10,-6) scale(1,1)"><g><path fill="none" stroke="none"/><text fill="#000000" stroke="none" font-family="Arial" font-size="13px" font-style="normal" font-weight="normal" text-decoration="none" x="405" y="453.5">+addLineItems()</text></g></g><g transform="translate(10,-6) scale(1,1)"><g><path fill="none" stroke="none"/><text fill="#000000" stroke="none" font-family="Arial" font-size="13px" font-style="normal" font-weight="normal" text-decoration="none" x="405" y="468.5">+removeLineItems()</text></g></g><g transform="translate(10,-6) scale(1,1)"><g><path fill="none" stroke="none"/><text fill="#000000" stroke="none" font-family="Arial" font-size="13px" font-style="normal" font-weight="normal" text-decoration="none" x="405" y="483.5">+discountPercentage()</text></g></g><g transform="translate(10,-6) scale(1,1)"><g><path fill="none" stroke="none"/><text fill="#000000" stroke="none" font-family="Arial" font-size="13px" font-style="normal" font-weight="normal" text-decoration="none" x="405" y="498.5">+discountAmount()</text></g></g><g transform="translate(10,-6) scale(1,1)"><g><path fill="none" stroke="none"/><text fill="#000000" stroke="none" font-family="Arial" font-size="13px" font-style="normal" font-weight="normal" text-decoration="none" x="405" y="513.5">+addSecretNote()</text></g></g><g transform="translate(10,-6) scale(1,1)"><g><path fill="none" stroke="none"/><text fill="#000000" stroke="none" font-family="Arial" font-size="13px" font-style="normal" font-weight="normal" text-decoration="none" x="405" y="528.5">+createPurchaseOrder()</text></g></g><g transform="translate(10,-6) scale(1,1)"><g><path fill="none" stroke="none"/><text fill="#000000" stroke="none" font-family="Arial" font-size="13px" font-style="normal" font-weight="normal" text-decoration="none" x="405" y="543.5">+getFinalizedQuote()</text></g></g><g transform="translate(10,-6) scale(1,1)"><g><path fill="none" stroke="none"/><text fill="#000000" stroke="none" font-family="Arial" font-size="13px" font-style="normal" font-weight="normal" text-decoration="none" x="405" y="558.5">+getSanctionedQuote()</text></g></g><g transform="translate(10,-6) scale(1,1)"><path fill="none" stroke="#000000" d="M 471 647 L 472 564" stroke-miterlimit="10"/></g><g transform="translate(10,-6) scale(1,1)"><path fill="#FFFFFF" stroke="none" d="M 476.08677928473185 574.212650737095 L 472 564 L 467.6683547553569 574.1112239355363 L 471.734958994875 585.9984034253762"/></g><g transform="translate(10,-6) scale(1,1)"><path fill="none" stroke="#000000" d="M 476.08677928473185 574.212650737095 L 472 564 L 467.6683547553569 574.1112239355363 L 471.734958994875 585.9984034253762 L 476.08677928473185 574.212650737095" stroke-miterlimit="10"/></g><g transform="translate(10,-6) scale(1,1)"><path fill="none" stroke="#000000" d="M 369 250 L 391 248" stroke-miterlimit="10"/></g><g transform="translate(10,-6) scale(1,1)"><path fill="none" stroke="#000000" d="M 473 300 L 473 327" stroke-miterlimit="10"/></g><g transform="translate(10,-6) scale(1,1)"><path fill="none" stroke="#000000" d="M 553 235 L 575 233" stroke-miterlimit="10"/></g><g transform="translate(10,-6) scale(1,1)"><rect fill="#C0C0C0" stroke="none" x="615" y="719" width="122.826171875" height="130" opacity="0.2"/></g><g transform="translate(10,-6) scale(1,1)"><rect fill="#ffffff" stroke="none" x="608" y="712" width="122.826171875" height="130"/></g><g transform="translate(10,-6) scale(1,1)"><path fill="none" stroke="#000000" d="M 608 712 L 730.826171875 712 L 730.826171875 842 L 608 842 L 608 712 Z Z" stroke-miterlimit="10"/></g><g transform="translate(10,-6) scale(1,1)"><path fill="none" stroke="#000000" d="M 608 750 L 730.826171875 750" stroke-miterlimit="10"/></g><g transform="translate(10,-6) scale(1,1)"><path fill="none" stroke="#000000" d="M 608 833 L 730.826171875 833" stroke-miterlimit="10"/></g><g transform="translate(10,-6) scale(1,1)"><g><path fill="none" stroke="none"/><text fill="#000000" stroke="none" font-family="Arial" font-size="13px" font-style="normal" font-weight="normal" text-decoration="none" x="645.9267578125" y="729.5">«Entity»</text></g></g><g transform="translate(10,-6) scale(1,1)"><g><path fill="none" stroke="none"/><text fill="#000000" stroke="none" font-family="Arial" font-size="13px" font-style="normal" font-weight="bold" text-decoration="none" x="644.482666015625" y="744.5">LineItem</text></g></g><g transform="translate(10,-6) scale(1,1)"><g><path fill="none" stroke="none"/><text fill="#000000" stroke="none" font-family="Arial" font-size="13px" font-style="normal" font-weight="normal" text-decoration="none" x="613" y="767.5">+lineId {unique}</text></g></g><g transform="translate(10,-6) scale(1,1)"><g><path fill="none" stroke="none"/><text fill="#000000" stroke="none" font-family="Arial" font-size="13px" font-style="normal" font-weight="normal" text-decoration="none" x="613" y="782.5">+quoteId</text></g></g><g transform="translate(10,-6) scale(1,1)"><g><path fill="none" stroke="none"/><text fill="#000000" stroke="none" font-family="Arial" font-size="13px" font-style="normal" font-weight="normal" text-decoration="none" x="613" y="797.5">+description</text></g></g><g transform="translate(10,-6) scale(1,1)"><g><path fill="none" stroke="none"/><text fill="#000000" stroke="none" font-family="Arial" font-size="13px" font-style="normal" font-weight="normal" text-decoration="none" x="613" y="812.5">+price</text></g></g><g transform="translate(10,-6) scale(1,1)"><g><path fill="none" stroke="none"/><text fill="#000000" stroke="none" font-family="Arial" font-size="13px" font-style="normal" font-weight="normal" text-decoration="none" x="613" y="827.5">+secretNote</text></g></g><g transform="translate(10,-6) scale(1,1)"><path fill="none" stroke="#000000" d="M 607 780 L 555 783" stroke-miterlimit="10"/></g><g transform="translate(10,-6) scale(1,1)"><path fill="#FFFFFF" stroke="none" d="M 564.9033505874543 778.2121354298633 L 555 783 L 565.3882578618031 786.6171948519102 L 576.9634787168634 781.7328762278732"/></g><g transform="translate(10,-6) scale(1,1)"><path fill="none" stroke="#000000" d="M 564.9033505874543 778.2121354298633 L 555 783 L 565.3882578618031 786.6171948519102 L 576.9634787168634 781.7328762278732 L 564.9033505874543 778.2121354298633" stroke-miterlimit="10"/></g><g transform="translate(10,-6) scale(1,1)"><rect fill="#C0C0C0" stroke="none" x="151" y="527" width="194" height="235" opacity="0.2"/></g><g transform="translate(10,-6) scale(1,1)"><rect fill="#ffffff" stroke="none" x="144" y="520" width="194" height="235"/></g><g transform="translate(10,-6) scale(1,1)"><path fill="none" stroke="#000000" d="M 144 520 L 338 520 L 338 755 L 144 755 L 144 520 Z Z" stroke-miterlimit="10"/></g><g transform="translate(10,-6) scale(1,1)"><path fill="none" stroke="#000000" d="M 144 558 L 338 558" stroke-miterlimit="10"/></g><g transform="translate(10,-6) scale(1,1)"><path fill="none" stroke="#000000" d="M 144 568 L 338 568" stroke-miterlimit="10"/></g><g transform="translate(10,-6) scale(1,1)"><g><path fill="none" stroke="none"/><text fill="#000000" stroke="none" font-family="Arial" font-size="13px" font-style="normal" font-weight="normal" text-decoration="none" x="205.945068359375" y="537.5">«Boundary»</text></g></g><g transform="translate(10,-6) scale(1,1)"><g><path fill="none" stroke="none"/><text fill="#000000" stroke="none" font-family="Arial" font-size="13px" font-style="normal" font-weight="bold" text-decoration="none" x="186.44189453125" y="552.5">SanctionQuoteGUI</text></g></g><g transform="translate(10,-6) scale(1,1)"><g><path fill="none" stroke="none"/><text fill="#000000" stroke="none" font-family="Arial" font-size="13px" font-style="normal" font-weight="normal" text-decoration="none" x="149" y="585.5">+addLineItems()</text></g></g><g transform="translate(10,-6) scale(1,1)"><g><path fill="none" stroke="none"/><text fill="#000000" stroke="none" font-family="Arial" font-size="13px" font-style="normal" font-weight="normal" text-decoration="none" x="149" y="600.5">+editLineItems()</text></g></g><g transform="translate(10,-6) scale(1,1)"><g><path fill="none" stroke="none"/><text fill="#000000" stroke="none" font-family="Arial" font-size="13px" font-style="normal" font-weight="normal" text-decoration="none" x="149" y="615.5">+removeLineItems()</text></g></g><g transform="translate(10,-6) scale(1,1)"><g><path fill="none" stroke="none"/><text fill="#000000" stroke="none" font-family="Arial" font-size="13px" font-style="normal" font-weight="normal" text-decoration="none" x="149" y="630.5">+calculatePrice()</text></g></g><g transform="translate(10,-6) scale(1,1)"><g><path fill="none" stroke="none"/><text fill="#000000" stroke="none" font-family="Arial" font-size="13px" font-style="normal" font-weight="normal" text-decoration="none" x="149" y="645.5">+calculateDiscountPercentage()</text></g></g><g transform="translate(10,-6) scale(1,1)"><g><path fill="none" stroke="none"/><text fill="#000000" stroke="none" font-family="Arial" font-size="13px" font-style="normal" font-weight="normal" text-decoration="none" x="149" y="660.5">+calculateDiscountAmount()</text></g></g><g transform="translate(10,-6) scale(1,1)"><g><path fill="none" stroke="none"/><text fill="#000000" stroke="none" font-family="Arial" font-size="13px" font-style="normal" font-weight="normal" text-decoration="none" x="149" y="675.5">+calculateFinalPrice()</text></g></g><g transform="translate(10,-6) scale(1,1)"><g><path fill="none" stroke="none"/><text fill="#000000" stroke="none" font-family="Arial" font-size="13px" font-style="normal" font-weight="normal" text-decoration="none" x="149" y="690.5">+addSecretNote()</text></g></g><g transform="translate(10,-6) scale(1,1)"><g><path fill="none" stroke="none"/><text fill="#000000" stroke="none" font-family="Arial" font-size="13px" font-style="normal" font-weight="normal" text-decoration="none" x="149" y="705.5">+editSecretNote()</text></g></g><g transform="translate(10,-6) scale(1,1)"><g><path fill="none" stroke="none"/><text fill="#000000" stroke="none" font-family="Arial" font-size="13px" font-style="normal" font-weight="normal" text-decoration="none" x="149" y="720.5">+markQuoteSanctioned()</text></g></g><g transform="translate(10,-6) scale(1,1)"><g><path fill="none" stroke="none"/><text fill="#000000" stroke="none" font-family="Arial" font-size="13px" font-style="normal" font-weight="normal" text-decoration="none" x="149" y="735.5">+emailSanctionedQuote()</text></g></g><g transform="translate(10,-6) scale(1,1)"><g><path fill="none" stroke="none"/><text fill="#000000" stroke="none" font-family="Arial" font-size="13px" font-style="normal" font-weight="normal" text-decoration="none" x="149" y="750.5">+displayQuote()</text></g></g><g transform="translate(10,-6) scale(1,1)"><rect fill="#C0C0C0" stroke="none" x="199" y="407" width="130.7607421875" height="85" opacity="0.2"/></g><g transform="translate(10,-6) scale(1,1)"><rect fill="#ffffff" stroke="none" x="192" y="400" width="130.7607421875" height="85"/></g><g transform="translate(10,-6) scale(1,1)"><path fill="none" stroke="#000000" d="M 192 400 L 322.7607421875 400 L 322.7607421875 485 L 192 485 L 192 400 Z Z" stroke-miterlimit="10"/></g><g transform="translate(10,-6) scale(1,1)"><path fill="none" stroke="#000000" d="M 192 438 L 322.7607421875 438" stroke-miterlimit="10"/></g><g transform="translate(10,-6) scale(1,1)"><path fill="none" stroke="#000000" d="M 192 448 L 322.7607421875 448" stroke-miterlimit="10"/></g><g transform="translate(10,-6) scale(1,1)"><g><path fill="none" stroke="none"/><text fill="#000000" stroke="none" font-family="Arial" font-size="13px" font-style="normal" font-weight="normal" text-decoration="none" x="223.417236328125" y="417.5">«Controler»</text></g></g><g transform="translate(10,-6) scale(1,1)"><g><path fill="none" stroke="none"/><text fill="#000000" stroke="none" font-family="Arial" font-size="13px" font-style="normal" font-weight="bold" text-decoration="none" x="216.18408203125" y="432.5">ManageQuote</text></g></g><g transform="translate(10,-6) scale(1,1)"><g><path fill="none" stroke="none"/><text fill="#000000" stroke="none" font-family="Arial" font-size="13px" font-style="normal" font-weight="normal" text-decoration="none" x="197" y="465.5">+getFinalizedQuote()</text></g></g><g transform="translate(10,-6) scale(1,1)"><g><path fill="none" stroke="none"/><text fill="#000000" stroke="none" font-family="Arial" font-size="13px" font-style="normal" font-weight="normal" text-decoration="none" x="197" y="480.5">+updateQuote()</text></g></g><g transform="translate(10,-6) scale(1,1)"><path fill="none" stroke="#000000" d="M 251 519 L 253 486" stroke-miterlimit="10"/></g><g transform="translate(10,-6) scale(1,1)"><rect fill="#C0C0C0" stroke="none" x="7" y="399" width="105.4462890625" height="250" opacity="0.2"/></g><g transform="translate(10,-6) scale(1,1)"><rect fill="#ffffff" stroke="none" x="0" y="392" width="105.4462890625" height="250"/></g><g transform="translate(10,-6) scale(1,1)"><path fill="none" stroke="#000000" d="M 0 392 L 105.4462890625 392 L 105.4462890625 642 L 0 642 L 0 392 Z Z" stroke-miterlimit="10"/></g><g transform="translate(10,-6) scale(1,1)"><path fill="none" stroke="#000000" d="M 0 430 L 105.4462890625 430" stroke-miterlimit="10"/></g><g transform="translate(10,-6) scale(1,1)"><path fill="none" stroke="#000000" d="M 0 440 L 105.4462890625 440" stroke-miterlimit="10"/></g><g transform="translate(10,-6) scale(1,1)"><g><path fill="none" stroke="none"/><text fill="#000000" stroke="none" font-family="Arial" font-size="13px" font-style="normal" font-weight="normal" text-decoration="none" x="17.668212890625" y="409.5">«Boundary»</text></g></g><g transform="translate(10,-6) scale(1,1)"><g><path fill="none" stroke="none"/><text fill="#000000" stroke="none" font-family="Arial" font-size="13px" font-style="normal" font-weight="bold" text-decoration="none" x="22.7431640625" y="424.5">AdminGUI</text></g></g><g transform="translate(10,-6) scale(1,1)"><g><path fill="none" stroke="none"/><text fill="#000000" stroke="none" font-family="Arial" font-size="13px" font-style="normal" font-weight="normal" text-decoration="none" x="5" y="457.5">+manageSA()</text></g></g><g transform="translate(10,-6) scale(1,1)"><g><path fill="none" stroke="none"/><text fill="#000000" stroke="none" font-family="Arial" font-size="13px" font-style="normal" font-weight="normal" text-decoration="none" x="5" y="472.5">+editSearch()</text></g></g><g transform="translate(10,-6) scale(1,1)"><g><path fill="none" stroke="none"/><text fill="#000000" stroke="none" font-family="Arial" font-size="13px" font-style="normal" font-weight="normal" text-decoration="none" x="5" y="487.5">+editList()</text></g></g><g transform="translate(10,-6) scale(1,1)"><g><path fill="none" stroke="none"/><text fill="#000000" stroke="none" font-family="Arial" font-size="13px" font-style="normal" font-weight="normal" text-decoration="none" x="5" y="502.5">+editSA()</text></g></g><g transform="translate(10,-6) scale(1,1)"><g><path fill="none" stroke="none"/><text fill="#000000" stroke="none" font-family="Arial" font-size="13px" font-style="normal" font-weight="normal" text-decoration="none" x="5" y="517.5">+updateSA()</text></g></g><g transform="translate(10,-6) scale(1,1)"><g><path fill="none" stroke="none"/><text fill="#000000" stroke="none" font-family="Arial" font-size="13px" font-style="normal" font-weight="normal" text-decoration="none" x="5" y="532.5">+createSA()</text></g></g><g transform="translate(10,-6) scale(1,1)"><g><path fill="none" stroke="none"/><text fill="#000000" stroke="none" font-family="Arial" font-size="13px" font-style="normal" font-weight="normal" text-decoration="none" x="5" y="547.5">+deleteSearch()</text></g></g><g transform="translate(10,-6) scale(1,1)"><g><path fill="none" stroke="none"/><text fill="#000000" stroke="none" font-family="Arial" font-size="13px" font-style="normal" font-weight="normal" text-decoration="none" x="5" y="562.5">+deleteList()</text></g></g><g transform="translate(10,-6) scale(1,1)"><g><path fill="none" stroke="none"/><text fill="#000000" stroke="none" font-family="Arial" font-size="13px" font-style="normal" font-weight="normal" text-decoration="none" x="5" y="577.5">+deleteSA()</text></g></g><g transform="translate(10,-6) scale(1,1)"><g><path fill="none" stroke="none"/><text fill="#000000" stroke="none" font-family="Arial" font-size="13px" font-style="normal" font-weight="normal" text-decoration="none" x="5" y="592.5">+confirmDelete()</text></g></g><g transform="translate(10,-6) scale(1,1)"><g><path fill="none" stroke="none"/><text fill="#000000" stroke="none" font-family="Arial" font-size="13px" font-style="normal" font-weight="normal" text-decoration="none" x="5" y="607.5">+quoteOption()</text></g></g><g transform="translate(10,-6) scale(1,1)"><g><path fill="none" stroke="none"/><text fill="#000000" stroke="none" font-family="Arial" font-size="13px" font-style="normal" font-weight="normal" text-decoration="none" x="5" y="622.5">+quoteSearch()</text></g></g><g transform="translate(10,-6) scale(1,1)"><g><path fill="none" stroke="none"/><text fill="#000000" stroke="none" font-family="Arial" font-size="13px" font-style="normal" font-weight="normal" text-decoration="none" x="5" y="637.5">+quoteShow()</text></g></g><g transform="translate(10,-6) scale(1,1)"><rect fill="#C0C0C0" stroke="none" x="7" y="183" width="101" height="145" opacity="0.2"/></g><g transform="translate(10,-6) scale(1,1)"><rect fill="#ffffff" stroke="none" x="0" y="176" width="101" height="145"/></g><g transform="translate(10,-6) scale(1,1)"><path fill="none" stroke="#000000" d="M 0 176 L 101 176 L 101 321 L 0 321 L 0 176 Z Z" stroke-miterlimit="10"/></g><g transform="translate(10,-6) scale(1,1)"><path fill="none" stroke="#000000" d="M 0 214 L 101 214" stroke-miterlimit="10"/></g><g transform="translate(10,-6) scale(1,1)"><path fill="none" stroke="#000000" d="M 0 224 L 101 224" stroke-miterlimit="10"/></g><g transform="translate(10,-6) scale(1,1)"><g><path fill="none" stroke="none"/><text fill="#000000" stroke="none" font-family="Arial" font-size="13px" font-style="normal" font-weight="normal" text-decoration="none" x="15.0927734375" y="193.5">«Controller»</text></g></g><g transform="translate(10,-6) scale(1,1)"><g><path fill="none" stroke="none"/><text fill="#000000" stroke="none" font-family="Arial" font-size="13px" font-style="normal" font-weight="bold" text-decoration="none" x="8.58642578125" y="208.5">AdminManage</text></g></g><g transform="translate(10,-6) scale(1,1)"><g><path fill="none" stroke="none"/><text fill="#000000" stroke="none" font-family="Arial" font-size="13px" font-style="normal" font-weight="normal" text-decoration="none" x="5" y="241.5">+findSA()</text></g></g><g transform="translate(10,-6) scale(1,1)"><g><path fill="none" stroke="none"/><text fill="#000000" stroke="none" font-family="Arial" font-size="13px" font-style="normal" font-weight="normal" text-decoration="none" x="5" y="256.5">+getSA()</text></g></g><g transform="translate(10,-6) scale(1,1)"><g><path fill="none" stroke="none"/><text fill="#000000" stroke="none" font-family="Arial" font-size="13px" font-style="normal" font-weight="normal" text-decoration="none" x="5" y="271.5">+updateSA()</text></g></g><g transform="translate(10,-6) scale(1,1)"><g><path fill="none" stroke="none"/><text fill="#000000" stroke="none" font-family="Arial" font-size="13px" font-style="normal" font-weight="normal" text-decoration="none" x="5" y="286.5">+deleteSA()</text></g></g><g transform="translate(10,-6) scale(1,1)"><g><path fill="none" stroke="none"/><text fill="#000000" stroke="none" font-family="Arial" font-size="13px" font-style="normal" font-weight="normal" text-decoration="none" x="5" y="301.5">+findQuote()</text></g></g><g transform="translate(10,-6) scale(1,1)"><g><path fill="none" stroke="none"/><text fill="#000000" stroke="none" font-family="Arial" font-size="13px" font-style="normal" font-weight="normal" text-decoration="none" x="5" y="316.5">+getQuote()</text></g></g><g transform="translate(10,-6) scale(1,1)"><rect fill="#C0C0C0" stroke="none" x="407" y="23" width="136.5244140625" height="130" opacity="0.2"/></g><g transform="translate(10,-6) scale(1,1)"><rect fill="#ffffff" stroke="none" x="400" y="16" width="136.5244140625" height="130"/></g><g transform="translate(10,-6) scale(1,1)"><path fill="none" stroke="#000000" d="M 400 16 L 536.5244140625 16 L 536.5244140625 146 L 400 146 L 400 16 Z Z" stroke-miterlimit="10"/></g><g transform="translate(10,-6) scale(1,1)"><path fill="none" stroke="#000000" d="M 400 54 L 536.5244140625 54" stroke-miterlimit="10"/></g><g transform="translate(10,-6) scale(1,1)"><path fill="none" stroke="#000000" d="M 400 64 L 536.5244140625 64" stroke-miterlimit="10"/></g><g transform="translate(10,-6) scale(1,1)"><g><path fill="none" stroke="none"/><text fill="#000000" stroke="none" font-family="Arial" font-size="13px" font-style="normal" font-weight="normal" text-decoration="none" x="430.687255859375" y="33.5">«Prsistence»</text></g></g><g transform="translate(10,-6) scale(1,1)"><g><path fill="none" stroke="none"/><text fill="#000000" stroke="none" font-family="Arial" font-size="13px" font-style="normal" font-weight="bold" text-decoration="none" x="445.140869140625" y="48.5">SAstore</text></g></g><g transform="translate(10,-6) scale(1,1)"><g><path fill="none" stroke="none"/><text fill="#000000" stroke="none" font-family="Arial" font-size="13px" font-style="normal" font-weight="normal" text-decoration="none" x="405" y="81.5">+getSA()</text></g></g><g transform="translate(10,-6) scale(1,1)"><g><path fill="none" stroke="none"/><text fill="#000000" stroke="none" font-family="Arial" font-size="13px" font-style="normal" font-weight="normal" text-decoration="none" x="405" y="96.5">+findSA()</text></g></g><g transform="translate(10,-6) scale(1,1)"><g><path fill="none" stroke="none"/><text fill="#000000" stroke="none" font-family="Arial" font-size="13px" font-style="normal" font-weight="normal" text-decoration="none" x="405" y="111.5">+updateSA()</text></g></g><g transform="translate(10,-6) scale(1,1)"><g><path fill="none" stroke="none"/><text fill="#000000" stroke="none" font-family="Arial" font-size="13px" font-style="normal" font-weight="normal" text-decoration="none" x="405" y="126.5">+deleteSA()</text></g></g><g transform="translate(10,-6) scale(1,1)"><g><path fill="none" stroke="none"/><text fill="#000000" stroke="none" font-family="Arial" font-size="13px" font-style="normal" font-weight="normal" text-decoration="none" x="405" y="141.5">+updateCommission()</text></g></g><g transform="translate(10,-6) scale(1,1)"><rect fill="#C0C0C0" stroke="none" x="95" y="23" width="104.392578125" height="130" opacity="0.2"/></g><g transform="translate(10,-6) scale(1,1)"><rect fill="#ffffff" stroke="none" x="88" y="16" width="104.392578125" height="130"/></g><g transform="translate(10,-6) scale(1,1)"><path fill="none" stroke="#000000" d="M 88 16 L 192.392578125 16 L 192.392578125 146 L 88 146 L 88 16 Z Z" stroke-miterlimit="10"/></g><g transform="translate(10,-6) scale(1,1)"><path fill="none" stroke="#000000" d="M 88 54 L 192.392578125 54" stroke-miterlimit="10"/></g><g transform="translate(10,-6) scale(1,1)"><path fill="none" stroke="#000000" d="M 88 137 L 192.392578125 137" stroke-miterlimit="10"/></g><g transform="translate(10,-6) scale(1,1)"><g><path fill="none" stroke="none"/><text fill="#000000" stroke="none" font-family="Arial" font-size="13px" font-style="normal" font-weight="normal" text-decoration="none" x="116.7099609375" y="33.5">«Entity»</text></g></g><g transform="translate(10,-6) scale(1,1)"><g><path fill="none" stroke="none"/><text fill="#000000" stroke="none" font-family="Arial" font-size="13px" font-style="normal" font-weight="bold" text-decoration="none" x="95.75634765625" y="48.5">SalesAssociate</text></g></g><g transform="translate(10,-6) scale(1,1)"><g><path fill="none" stroke="none"/><text fill="#000000" stroke="none" font-family="Arial" font-size="13px" font-style="normal" font-weight="normal" text-decoration="none" x="93" y="71.5">+saId {unique}</text></g></g><g transform="translate(10,-6) scale(1,1)"><g><path fill="none" stroke="none"/><text fill="#000000" stroke="none" font-family="Arial" font-size="13px" font-style="normal" font-weight="normal" text-decoration="none" x="93" y="86.5">+Name</text></g></g><g transform="translate(10,-6) scale(1,1)"><g><path fill="none" stroke="none"/><text fill="#000000" stroke="none" font-family="Arial" font-size="13px" font-style="normal" font-weight="normal" text-decoration="none" x="93" y="101.5">+password</text></g></g><g transform="translate(10,-6) scale(1,1)"><g><path fill="none" stroke="none"/><text fill="#000000" stroke="none" font-family="Arial" font-size="13px" font-style="normal" font-weight="normal" text-decoration="none" x="93" y="116.5">+commission</text></g></g><g transform="translate(10,-6) scale(1,1)"><g><path fill="none" stroke="none"/><text fill="#000000" stroke="none" font-family="Arial" font-size="13px" font-style="normal" font-weight="normal" text-decoration="none" x="93" y="131.5">+address</text></g></g><g transform="translate(10,-6) scale(1,1)"><path fill="none" stroke="#000000" d="M 193 81 L 399 81" stroke-miterlimit="10"/></g><g transform="translate(10,-6) scale(1,1)"><path fill="#FFFFFF" stroke="none" d="M 388.83732514237585 85.20951775601598 L 399 81 L 388.83732514237585 76.79048224398402 L 377 81"/></g><g transform="translate(10,-6) scale(1,1)"><path fill="none" stroke="#000000" d="M 388.83732514237585 85.20951775601598 L 399 81 L 388.83732514237585 76.79048224398402 L 377 81 L 388.83732514237585 85.20951775601598" stroke-miterlimit="10"/></g><g transform="translate(10,-6) scale(1,1)"><path fill="none" stroke="#000000" d="M 399 109 L 102 227" stroke-miterlimit="10"/></g><g transform="translate(10,-6) scale(1,1)"><path fill="none" stroke="#000000" d="M 51 322 L 51 391" stroke-miterlimit="10"/></g><g transform="translate(10,-6) scale(1,1)"><path fill="none" stroke="#000000" d="M 102 272 L 399 410" stroke-miterlimit="10"/></g><g transform="translate(10,-6) scale(1,1)"><path fill="none" stroke="#000000" d="M 470 147 L 471 183" stroke-miterlimit="10"/></g><g transform="translate(10,-6) scale(1,1)"><path fill="none" stroke="#000000" d="M 324 443 L 399 444" stroke-miterlimit="10"/></g><g transform="translate(10,-6) scale(1,1)"><rect fill="#C0C0C0" stroke="none" x="783" y="159" width="252.5341796875" height="115" opacity="0.2"/></g><g transform="translate(10,-6) scale(1,1)"><rect fill="#ffffff" stroke="none" x="776" y="152" width="252.5341796875" height="115"/></g><g transform="translate(10,-6) scale(1,1)"><path fill="none" stroke="#000000" d="M 776 152 L 1028.5341796875 152 L 1028.5341796875 267 L 776 267 L 776 152 Z Z" stroke-miterlimit="10"/></g><g transform="translate(10,-6) scale(1,1)"><path fill="none" stroke="#000000" d="M 776 190 L 1028.5341796875 190" stroke-miterlimit="10"/></g><g transform="translate(10,-6) scale(1,1)"><path fill="none" stroke="#000000" d="M 776 200 L 1028.5341796875 200" stroke-miterlimit="10"/></g><g transform="translate(10,-6) scale(1,1)"><g><path fill="none" stroke="none"/><text fill="#000000" stroke="none" font-family="Arial" font-size="13px" font-style="normal" font-weight="normal" text-decoration="none" x="866.85986328125" y="169.5">«Controller»</text></g></g><g transform="translate(10,-6) scale(1,1)"><g><path fill="none" stroke="none"/><text fill="#000000" stroke="none" font-family="Arial" font-size="13px" font-style="normal" font-weight="bold" text-decoration="none" x="834.70263671875" y="184.5">ManagePurchaseOrder</text></g></g><g transform="translate(10,-6) scale(1,1)"><g><path fill="none" stroke="none"/><text fill="#000000" stroke="none" font-family="Arial" font-size="13px" font-style="normal" font-weight="normal" text-decoration="none" x="781" y="217.5">+sendPO()</text></g></g><g transform="translate(10,-6) scale(1,1)"><g><path fill="none" stroke="none"/><text fill="#000000" stroke="none" font-family="Arial" font-size="13px" font-style="normal" font-weight="normal" text-decoration="none" x="781" y="232.5">+setSalesCommission()</text></g></g><g transform="translate(10,-6) scale(1,1)"><g><path fill="none" stroke="none"/><text fill="#000000" stroke="none" font-family="Arial" font-size="13px" font-style="normal" font-weight="normal" text-decoration="none" x="781" y="247.5">+getSanctionedQuote()</text></g></g><g transform="translate(10,-6) scale(1,1)"><g><path fill="none" stroke="none"/><text fill="#000000" stroke="none" font-family="Arial" font-size="13px" font-style="normal" font-weight="normal" text-decoration="none" x="781" y="262.5">+createPurchaseOrder()</text></g></g><g transform="translate(10,-6) scale(1,1)"><path fill="none" stroke="#000000" d="M 551 403 L 795 268" stroke-miterlimit="10"/></g><g transform="translate(10,-6) scale(1,1)"><rect fill="#C0C0C0" stroke="none" x="623" y="399" width="222" height="220" opacity="0.2"/></g><g transform="translate(10,-6) scale(1,1)"><rect fill="#ffffff" stroke="none" x="616" y="392" width="222" height="220"/></g><g transform="translate(10,-6) scale(1,1)"><path fill="none" stroke="#000000" d="M 616 392 L 838 392 L 838 612 L 616 612 L 616 392 Z Z" stroke-miterlimit="10"/></g><g transform="translate(10,-6) scale(1,1)"><path fill="none" stroke="#000000" d="M 616 430 L 838 430" stroke-miterlimit="10"/></g><g transform="translate(10,-6) scale(1,1)"><path fill="none" stroke="#000000" d="M 616 440 L 838 440" stroke-miterlimit="10"/></g><g transform="translate(10,-6) scale(1,1)"><g><path fill="none" stroke="none"/><text fill="#000000" stroke="none" font-family="Arial" font-size="13px" font-style="normal" font-weight="normal" text-decoration="none" x="691.945068359375" y="409.5">«Boundary»</text></g></g><g transform="translate(10,-6) scale(1,1)"><g><path fill="none" stroke="none"/><text fill="#000000" stroke="none" font-family="Arial" font-size="13px" font-style="normal" font-weight="bold" text-decoration="none" x="651.859619140625" y="424.5">CreatePurchaseOrderGUI</text></g></g><g transform="translate(10,-6) scale(1,1)"><g><path fill="none" stroke="none"/><text fill="#000000" stroke="none" font-family="Arial" font-size="13px" font-style="normal" font-weight="normal" text-decoration="none" x="621" y="457.5">+addFinalDiscount()</text></g></g><g transform="translate(10,-6) scale(1,1)"><g><path fill="none" stroke="none"/><text fill="#000000" stroke="none" font-family="Arial" font-size="13px" font-style="normal" font-weight="normal" text-decoration="none" x="621" y="472.5">+calculateFinalDiscountPercentage()</text></g></g><g transform="translate(10,-6) scale(1,1)"><g><path fill="none" stroke="none"/><text fill="#000000" stroke="none" font-family="Arial" font-size="13px" font-style="normal" font-weight="normal" text-decoration="none" x="621" y="487.5">+calculateFinalDiscountAmount()</text></g></g><g transform="translate(10,-6) scale(1,1)"><g><path fill="none" stroke="none"/><text fill="#000000" stroke="none" font-family="Arial" font-size="13px" font-style="normal" font-weight="normal" text-decoration="none" x="621" y="502.5">+calculateFinalPrice()</text></g></g><g transform="translate(10,-6) scale(1,1)"><g><path fill="none" stroke="none"/><text fill="#000000" stroke="none" font-family="Arial" font-size="13px" font-style="normal" font-weight="normal" text-decoration="none" x="621" y="517.5">+displayProcessingDate()</text></g></g><g transform="translate(10,-6) scale(1,1)"><g><path fill="none" stroke="none"/><text fill="#000000" stroke="none" font-family="Arial" font-size="13px" font-style="normal" font-weight="normal" text-decoration="none" x="621" y="532.5">+displayCommissionRate()</text></g></g><g transform="translate(10,-6) scale(1,1)"><g><path fill="none" stroke="none"/><text fill="#000000" stroke="none" font-family="Arial" font-size="13px" font-style="normal" font-weight="normal" text-decoration="none" x="621" y="547.5">+calculateSalesCommission()</text></g></g><g transform="translate(10,-6) scale(1,1)"><g><path fill="none" stroke="none"/><text fill="#000000" stroke="none" font-family="Arial" font-size="13px" font-style="normal" font-weight="normal" text-decoration="none" x="621" y="562.5">+addAccumulatedCommissions()</text></g></g><g transform="translate(10,-6) scale(1,1)"><g><path fill="none" stroke="none"/><text fill="#000000" stroke="none" font-family="Arial" font-size="13px" font-style="normal" font-weight="normal" text-decoration="none" x="621" y="577.5">+createPurchaseOrder()</text></g></g><g transform="translate(10,-6) scale(1,1)"><g><path fill="none" stroke="none"/><text fill="#000000" stroke="none" font-family="Arial" font-size="13px" font-style="normal" font-weight="normal" text-decoration="none" x="621" y="592.5">+emailPurchaseOrder()</text></g></g><g transform="translate(10,-6) scale(1,1)"><g><path fill="none" stroke="none"/><text fill="#000000" stroke="none" font-family="Arial" font-size="13px" font-style="normal" font-weight="normal" text-decoration="none" x="621" y="607.5">+displayQuote()</text></g></g><g transform="translate(10,-6) scale(1,1)"><path fill="none" stroke="#000000" d="M 793 391 L 867 268" stroke-miterlimit="10"/></g><g transform="translate(10,-6) scale(1,1)"><rect fill="#C0C0C0" stroke="none" x="863" y="399" width="172" height="70" opacity="0.2"/></g><g transform="translate(10,-6) scale(1,1)"><rect fill="#ffffff" stroke="none" x="856" y="392" width="172" height="70"/></g><g transform="translate(10,-6) scale(1,1)"><path fill="none" stroke="#000000" d="M 856 392 L 1028 392 L 1028 462 L 856 462 L 856 392 Z Z" stroke-miterlimit="10"/></g><g transform="translate(10,-6) scale(1,1)"><path fill="none" stroke="#000000" d="M 856 430 L 1028 430" stroke-miterlimit="10"/></g><g transform="translate(10,-6) scale(1,1)"><path fill="none" stroke="#000000" d="M 856 440 L 1028 440" stroke-miterlimit="10"/></g><g transform="translate(10,-6) scale(1,1)"><g><path fill="none" stroke="none"/><text fill="#000000" stroke="none" font-family="Arial" font-size="13px" font-style="normal" font-weight="normal" text-decoration="none" x="906.945068359375" y="409.5">«Boundary»</text></g></g><g transform="translate(10,-6) scale(1,1)"><g><path fill="none" stroke="none"/><text fill="#000000" stroke="none" font-family="Arial" font-size="13px" font-style="normal" font-weight="bold" text-decoration="none" x="872.274169921875" y="424.5">PurchaseOrderGateway</text></g></g><g transform="translate(10,-6) scale(1,1)"><g><path fill="none" stroke="none"/><text fill="#000000" stroke="none" font-family="Arial" font-size="13px" font-style="normal" font-weight="normal" text-decoration="none" x="861" y="457.5">+getDateAndRate()</text></g></g><g transform="translate(10,-6) scale(1,1)"><path fill="none" stroke="#000000" d="M 913 268 L 935 391" stroke-miterlimit="10"/></g><g transform="translate(10,-6) scale(1,1)"><path fill="none" stroke="#000000" d="M 775 172 L 538 102" stroke-miterlimit="10"/></g></g></svg>